<svg width="11408" height="6538" viewBox="0 0 11408 6538" fill="none" xmlns="http://www.w3.org/2000/svg">
<circle cx="10107.8" cy="3852" r="501" fill="white" stroke="black" stroke-width="20"/>
<circle cx="5937.75" cy="3016" r="501" fill="white" stroke="black" stroke-width="20"/>
<circle cx="5937.75" cy="4688" r="501" fill="white" stroke="black" stroke-width="20"/>
<path d="M5937.75 4177.05V3708" stroke="black" stroke-width="20"/>
<circle cx="1767.75" cy="1677" r="501" fill="white" stroke="black" stroke-width="20"/>
<circle cx="1767.75" cy="3852" r="501" fill="white" stroke="black" stroke-width="20"/>
<circle cx="1767.75" cy="6027" r="501" fill="white" stroke="black" stroke-width="20"/>
<path d="M1767.75 3341.05V2872" stroke="black" stroke-width="20"/>
<path d="M1767.75 5516.05V5047" stroke="black" stroke-width="20"/>
<path d="M6448.75 3058L9596.75 3852" stroke="black" stroke-width="20"/>
<path d="M6448.75 4722L9596.75 3852" stroke="black" stroke-width="20"/>
<path d="M2278.75 3852L5426.75 3058" stroke="black" stroke-width="20"/>
<path d="M2278.75 3852L5426.75 4722" stroke="black" stroke-width="20"/>
<path d="M2278.75 6018L5426.75 4722" stroke="black" stroke-width="20"/>
<path d="M2278.75 6018L5426.75 3058" stroke="black" stroke-width="20"/>
<path d="M2278.75 1693L5426.75 4722" stroke="black" stroke-width="20"/>
<path d="M2278.75 1693L5426.75 3058" stroke="black" stroke-width="20"/>
<path d="M1767.75 1166.05V697" stroke="black" stroke-width="20"/>
<path d="M787.75 1693H1256.8" stroke="black" stroke-width="20"/>
<path d="M787.75 3852H1256.8" stroke="black" stroke-width="20"/>
<path d="M787.75 6018H1256.8" stroke="black" stroke-width="20"/>
<path d="M10618.8 3852H11087.8" stroke="black" stroke-width="20"/>
<path d="M5937.75 2505.05V2036" stroke="black" stroke-width="20"/>
<path d="M10107.8 3341.05V2872" stroke="black" stroke-width="20"/>
<path d="M1862.27 1005L1886.42 859.545H1903.18L1894.38 913.239H1895.8C1897.31 911.345 1899.42 908.93 1902.12 905.994C1904.82 903.011 1908.44 900.36 1912.98 898.04C1917.53 895.672 1923.35 894.489 1930.45 894.489C1939.64 894.489 1947.33 896.785 1953.54 901.378C1959.79 905.971 1964.17 912.481 1966.68 920.909C1969.23 929.337 1969.56 939.28 1967.67 950.739C1965.78 962.292 1962.15 972.306 1956.8 980.781C1951.5 989.209 1944.97 995.743 1937.2 1000.38C1929.48 1004.98 1921.08 1007.27 1911.99 1007.27C1904.98 1007.27 1899.56 1006.11 1895.72 1003.79C1891.94 1001.43 1889.14 998.75 1887.34 995.767C1885.59 992.737 1884.24 990.227 1883.3 988.239H1881.31L1878.47 1005H1862.27ZM1887.84 950.455C1886.52 958.693 1886.54 965.961 1887.91 972.259C1889.29 978.509 1892.01 983.409 1896.08 986.96C1900.15 990.464 1905.55 992.216 1912.27 992.216C1919.28 992.216 1925.44 990.369 1930.74 986.676C1936.04 982.936 1940.4 977.917 1943.81 971.619C1947.22 965.275 1949.58 958.22 1950.91 950.455C1952.14 942.784 1952.09 935.871 1950.77 929.716C1949.49 923.513 1946.79 918.613 1942.67 915.014C1938.6 911.368 1933.01 909.545 1925.91 909.545C1919.09 909.545 1913.05 911.274 1907.8 914.73C1902.59 918.139 1898.28 922.921 1894.87 929.077C1891.51 935.185 1889.17 942.311 1887.84 950.455ZM1984.22 1005L2002.4 895.909H2019.16L2000.98 1005H1984.22ZM2015.89 877.443C2012.63 877.443 2009.81 876.33 2007.44 874.105C2005.12 871.88 2003.96 869.205 2003.96 866.08C2003.96 862.955 2005.12 860.279 2007.44 858.054C2009.81 855.829 2012.63 854.716 2015.89 854.716C2019.16 854.716 2021.96 855.829 2024.28 858.054C2026.64 860.279 2027.83 862.955 2027.83 866.08C2027.83 869.205 2026.64 871.88 2024.28 874.105C2021.96 876.33 2019.16 877.443 2015.89 877.443ZM2063.5 1007.56C2056.58 1007.56 2050.52 1006.25 2045.32 1003.65C2040.11 1001 2036.25 997.188 2033.74 992.216C2031.23 987.197 2030.54 981.136 2031.68 974.034C2032.77 967.784 2034.88 962.718 2038 958.835C2041.13 954.905 2044.91 951.828 2049.36 949.602C2053.86 947.33 2058.69 945.649 2063.85 944.56C2069.06 943.423 2074.25 942.547 2079.41 941.932C2086.13 941.08 2091.6 940.417 2095.81 939.943C2100.03 939.47 2103.2 938.688 2105.33 937.599C2107.46 936.51 2108.76 934.64 2109.24 931.989V931.42C2110.37 924.46 2109.45 919.039 2106.47 915.156C2103.48 911.226 2098.16 909.261 2090.49 909.261C2082.53 909.261 2075.88 911.013 2070.53 914.517C2065.18 918.021 2061.23 921.761 2058.67 925.739L2043.9 920.057C2047.78 913.428 2052.42 908.267 2057.82 904.574C2063.21 900.833 2068.87 898.229 2074.79 896.761C2080.71 895.246 2086.41 894.489 2091.91 894.489C2095.41 894.489 2099.36 894.915 2103.77 895.767C2108.17 896.572 2112.29 898.253 2116.13 900.81C2120.01 903.366 2122.92 907.225 2124.86 912.386C2126.85 917.547 2127.13 924.46 2125.71 933.125L2113.78 1005H2097.02L2099.58 990.227H2098.73C2097.21 992.595 2094.89 995.128 2091.76 997.827C2088.69 1000.53 2084.78 1002.82 2080.05 1004.72C2075.36 1006.61 2069.84 1007.56 2063.5 1007.56ZM2068.33 992.5C2074.96 992.5 2080.76 991.198 2085.73 988.594C2090.75 985.99 2094.77 982.628 2097.8 978.509C2100.88 974.389 2102.8 970.057 2103.55 965.511L2106.11 950.17C2105.26 951.023 2103.58 951.804 2101.07 952.514C2098.56 953.177 2095.72 953.769 2092.55 954.29C2089.42 954.763 2086.37 955.189 2083.38 955.568C2080.45 955.9 2078.08 956.184 2076.28 956.42C2071.83 956.989 2067.59 957.912 2063.57 959.19C2059.59 960.421 2056.23 962.292 2053.48 964.801C2050.78 967.263 2049.1 970.625 2048.44 974.886C2047.45 980.71 2048.84 985.114 2052.63 988.097C2056.42 991.032 2061.65 992.5 2068.33 992.5ZM2235.85 920.341L2219.94 924.602C2219.38 922.045 2218.38 919.583 2216.96 917.216C2215.59 914.801 2213.46 912.836 2210.57 911.321C2207.73 909.759 2203.84 908.977 2198.92 908.977C2192.24 908.977 2186.44 910.516 2181.52 913.594C2176.6 916.624 2173.78 920.483 2173.07 925.17C2172.36 929.29 2173.3 932.58 2175.91 935.043C2178.51 937.505 2182.87 939.517 2188.98 941.08L2204.6 945.057C2213.98 947.472 2220.65 951.094 2224.63 955.923C2228.66 960.705 2230.03 966.932 2228.75 974.602C2227.71 980.852 2224.99 986.439 2220.58 991.364C2216.18 996.288 2210.54 1000.17 2203.68 1003.01C2196.81 1005.85 2189.17 1007.27 2180.74 1007.27C2169.52 1007.27 2160.66 1004.86 2154.18 1000.03C2147.69 995.152 2144.23 988.097 2143.81 978.864L2160.57 974.886C2160.99 980.71 2163.08 985.114 2166.82 988.097C2170.61 991.032 2175.91 992.5 2182.73 992.5C2190.54 992.5 2197.05 990.843 2202.26 987.528C2207.47 984.167 2210.43 980.142 2211.14 975.455C2211.85 971.619 2211.09 968.423 2208.86 965.866C2206.69 963.31 2202.9 961.392 2197.5 960.114L2180.17 955.852C2170.51 953.437 2163.74 949.744 2159.86 944.773C2156.02 939.801 2154.74 933.551 2156.02 926.023C2157.06 919.867 2159.72 914.422 2163.98 909.688C2168.29 904.953 2173.68 901.236 2180.17 898.537C2186.7 895.838 2193.81 894.489 2201.48 894.489C2212.27 894.489 2220.35 896.856 2225.7 901.591C2231.05 906.278 2234.43 912.528 2235.85 920.341ZM2307.39 1005L2331.54 859.545H2348.3L2339.49 913.239H2340.91C2342.43 911.345 2344.53 908.93 2347.23 905.994C2349.93 903.011 2353.55 900.36 2358.1 898.04C2362.65 895.672 2368.47 894.489 2375.57 894.489C2384.76 894.489 2392.45 896.785 2398.65 901.378C2404.9 905.971 2409.28 912.481 2411.79 920.909C2414.35 929.337 2414.68 939.28 2412.79 950.739C2410.89 962.292 2407.27 972.306 2401.92 980.781C2396.62 989.209 2390.08 995.743 2382.32 1000.38C2374.6 1004.98 2366.2 1007.27 2357.11 1007.27C2350.1 1007.27 2344.68 1006.11 2340.84 1003.79C2337.05 1001.43 2334.26 998.75 2332.46 995.767C2330.71 992.737 2329.36 990.227 2328.41 988.239H2326.42L2323.58 1005H2307.39ZM2332.96 950.455C2331.63 958.693 2331.66 965.961 2333.03 972.259C2334.4 978.509 2337.12 983.409 2341.2 986.96C2345.27 990.464 2350.67 992.216 2357.39 992.216C2364.4 992.216 2370.55 990.369 2375.86 986.676C2381.16 982.936 2385.51 977.917 2388.92 971.619C2392.33 965.275 2394.7 958.22 2396.03 950.455C2397.26 942.784 2397.21 935.871 2395.88 929.716C2394.61 923.513 2391.91 918.613 2387.79 915.014C2383.72 911.368 2378.13 909.545 2371.03 909.545C2364.21 909.545 2358.17 911.274 2352.92 914.73C2347.71 918.139 2343.4 922.921 2339.99 929.077C2336.63 935.185 2334.28 942.311 2332.96 950.455Z" fill="black"/>
<path d="M3460.25 2064.31L3489.84 1958.23L3506 1965.24L3481.63 2045.71L3482.68 2046.16L3550.04 1984.34L3566.47 1991.45L3541.69 2071.44L3542.74 2071.89L3610.25 2010.44L3626.41 2017.45L3535.84 2097.08L3520.72 2090.53L3544.94 2009.68L3543.38 2009L3475.37 2070.86L3460.25 2064.31ZM3624.06 2137.81C3614.46 2133.65 3607.46 2128.08 3603.05 2121.11C3598.66 2114.1 3596.89 2106.21 3597.75 2097.45C3598.62 2088.64 3602.13 2079.48 3608.27 2069.96C3614.41 2060.44 3621.69 2052.87 3630.12 2047.23C3638.57 2041.55 3647.51 2038.15 3656.92 2037.02C3666.36 2035.85 3675.57 2037.21 3684.57 2041.11C3689.78 2043.37 3694.42 2046.42 3698.49 2050.24C3702.56 2054.07 3705.5 2058.7 3707.33 2064.14C3709.17 2069.53 3709.4 2075.72 3708.02 2082.71C3706.64 2089.7 3703.15 2097.52 3697.53 2106.19L3693.67 2112.25L3616.52 2078.8L3624.36 2066.41L3685.88 2093.08C3689.32 2087.87 3691.25 2082.71 3691.65 2077.62C3692.09 2072.55 3691.02 2067.93 3688.44 2063.77C3685.91 2059.63 3681.83 2056.34 3676.23 2053.91C3670.45 2051.4 3664.39 2050.63 3658.04 2051.59C3651.7 2052.51 3645.84 2054.61 3640.44 2057.9C3635.06 2061.14 3630.9 2065.01 3627.97 2069.52L3621.17 2080.2C3616.27 2087.93 3613.6 2094.62 3613.17 2100.26C3612.78 2105.92 3614.26 2110.77 3617.62 2114.81C3621 2118.8 3625.93 2122.2 3632.4 2125.01C3636.52 2126.8 3640.57 2127.88 3644.54 2128.26C3648.52 2128.59 3652.38 2128.2 3656.11 2127.09C3659.87 2125.93 3663.43 2124.02 3666.81 2121.35L3679.07 2131.62C3674.5 2135.63 3669.21 2138.6 3663.21 2140.54C3657.27 2142.45 3650.95 2143.22 3644.25 2142.84C3637.61 2142.44 3630.88 2140.76 3624.06 2137.81ZM3690.42 2164.1L3750.5 2071.25L3765.88 2077.91L3705.8 2170.77L3690.42 2164.1ZM3770.22 2059.67C3767.23 2058.37 3765.09 2056.23 3763.8 2053.25C3762.55 2050.28 3762.55 2047.37 3763.8 2044.5C3765.04 2041.63 3767.17 2039.64 3770.18 2038.52C3773.24 2037.42 3776.27 2037.52 3779.27 2038.82C3782.26 2040.12 3784.38 2042.25 3785.63 2045.22C3786.91 2048.2 3786.94 2051.12 3785.69 2053.99C3784.45 2056.86 3782.3 2058.84 3779.24 2059.94C3776.23 2061.06 3773.22 2060.97 3770.22 2059.67ZM3750.93 2237.4C3743.46 2234.16 3737.62 2230.5 3733.41 2226.4C3729.18 2222.35 3726.21 2218.12 3724.51 2213.72C3722.79 2209.36 3721.9 2205.1 3721.84 2200.95L3739.39 2198.34C3739.64 2200.61 3740.08 2203.28 3740.71 2206.34C3741.33 2209.45 3742.93 2212.59 3745.52 2215.78C3748.14 2219.03 3752.51 2221.99 3758.63 2224.64C3766.67 2228.13 3774.56 2229.22 3782.29 2227.93C3790.02 2226.64 3796.41 2222.13 3801.46 2214.41L3813.41 2195.44L3812.1 2194.87C3809.92 2196.1 3807.01 2197.52 3803.37 2199.14C3799.74 2200.71 3795.39 2201.64 3790.32 2201.92C3785.26 2202.15 3779.48 2200.85 3772.96 2198.03C3764.84 2194.51 3758.71 2189.58 3754.59 2183.25C3750.47 2176.93 3748.74 2169.57 3749.38 2161.18C3750.07 2152.81 3753.54 2143.78 3759.8 2134.11C3765.94 2124.59 3773.07 2117.08 3781.19 2111.57C3789.37 2106.03 3797.92 2102.72 3806.85 2101.64C3815.81 2100.52 3824.5 2101.78 3832.92 2105.43C3839.44 2108.26 3843.96 2111.51 3846.5 2115.19C3849.09 2118.84 3850.6 2122.39 3851.02 2125.82C3851.46 2129.21 3851.72 2131.96 3851.79 2134.05L3853.35 2134.73L3862.85 2119.96L3877.71 2126.4L3816.13 2222.01C3810.97 2229.99 3804.83 2235.64 3797.71 2238.95C3790.58 2242.31 3782.99 2243.74 3774.95 2243.25C3766.89 2242.8 3758.88 2240.85 3750.93 2237.4ZM3782.86 2185.91C3788.98 2188.57 3795.05 2189.52 3801.05 2188.77C3807.1 2188.03 3812.85 2185.7 3818.32 2181.78C3823.79 2177.85 3828.74 2172.46 3833.15 2165.61C3837.5 2158.92 3840.17 2152.52 3841.17 2146.4C3842.17 2140.28 3841.42 2134.82 3838.91 2130.01C3836.44 2125.23 3832.1 2121.49 3825.89 2118.8C3819.33 2115.95 3812.95 2115.15 3806.74 2116.37C3800.57 2117.62 3794.8 2120.39 3789.44 2124.67C3784.07 2128.95 3779.36 2134.23 3775.29 2140.52C3771.15 2146.98 3768.53 2153.14 3767.43 2159.01C3766.34 2164.84 3767.01 2170.09 3769.43 2174.75C3771.91 2179.38 3776.39 2183.1 3782.86 2185.91ZM3897.17 2182.21L3861.16 2238.13L3845.78 2231.46L3925.8 2107.62L3941.18 2114.28L3911.85 2159.78L3913.15 2160.35C3918.54 2156.49 3924.5 2154.17 3931.03 2153.39C3937.61 2152.63 3944.87 2153.97 3952.82 2157.42C3959.6 2160.36 3964.72 2164.2 3968.18 2168.95C3971.7 2173.68 3973.2 2179.26 3972.69 2185.69C3972.23 2192.1 3969.44 2199.3 3964.32 2207.3L3926.06 2266.27L3910.68 2259.6L3948.23 2201.57C3952.98 2194.18 3954.58 2187.57 3953.03 2181.74C3951.55 2175.88 3947.22 2171.4 3940.05 2168.29C3935.01 2166.11 3929.86 2165.14 3924.59 2165.38C3919.37 2165.65 3914.38 2167.17 3909.61 2169.96C3904.88 2172.76 3900.74 2176.84 3897.17 2182.21ZM4057.8 2204.48L4050.07 2216.61L3998.2 2194.12L4005.93 2181.99L4057.8 2204.48ZM4035.36 2166.26L4050.73 2172.93L3993.47 2261.43C3990.9 2265.48 3989.59 2268.78 3989.56 2271.35C3989.59 2273.89 3990.41 2275.95 3992 2277.52C3993.65 2279.06 3995.61 2280.32 3997.87 2281.3C3999.56 2282.03 4000.99 2282.55 4002.15 2282.85C4003.33 2283.1 4004.27 2283.3 4004.98 2283.45L4000.04 2297.72C3998.69 2297.6 3996.94 2297.31 3994.77 2296.83C3992.63 2296.42 3990.12 2295.59 3987.25 2294.35C3982.91 2292.46 3979.23 2289.76 3976.22 2286.23C3973.21 2282.71 3971.51 2278.59 3971.12 2273.88C3970.74 2269.18 3972.29 2264.12 3975.77 2258.71L4035.36 2166.26ZM4095.14 2339.57L4124.72 2233.5L4140.88 2240.5L4116.52 2320.98L4117.56 2321.43L4184.93 2259.6L4201.35 2266.72L4176.58 2346.71L4177.62 2347.16L4245.14 2285.71L4261.3 2292.71L4170.73 2372.35L4155.61 2365.79L4179.83 2284.95L4178.26 2284.27L4110.26 2346.13L4095.14 2339.57Z" fill="black"/>
<path d="M10670 3697.27C10660 3697.27 10651.6 3694.88 10644.8 3690.1C10638 3685.32 10633.3 3678.62 10630.5 3670C10627.7 3661.38 10627.3 3651.34 10629.1 3639.89C10630.9 3628.71 10634.5 3618.98 10639.8 3610.7C10645.2 3602.36 10651.9 3595.92 10659.9 3591.38C10668 3586.79 10676.8 3584.49 10686.5 3584.49C10696.5 3584.49 10704.9 3586.9 10711.6 3591.73C10718.4 3596.52 10723.2 3603.24 10726 3611.9C10728.8 3620.52 10729.3 3630.61 10727.4 3642.16C10725.6 3653.24 10722 3662.92 10716.5 3671.21C10711.2 3679.45 10704.5 3685.86 10696.4 3690.45C10688.5 3695 10679.7 3697.27 10670 3697.27ZM10670.3 3682.22C10678 3682.22 10684.6 3680.25 10690.3 3676.32C10696 3672.39 10700.5 3667.21 10704 3660.77C10707.6 3654.33 10710 3647.37 10711.2 3639.89C10712.4 3632.78 10712.3 3626.18 10711.1 3620.07C10709.8 3613.92 10707.2 3608.97 10703.2 3605.23C10699.2 3601.44 10693.5 3599.55 10686.2 3599.55C10678.6 3599.55 10671.9 3601.53 10666.1 3605.51C10660.4 3609.49 10655.8 3614.72 10652.3 3621.21C10648.8 3627.69 10646.5 3634.68 10645.3 3642.16C10644.2 3649.26 10644.2 3655.87 10645.4 3661.97C10646.6 3668.04 10649.2 3672.94 10653.3 3676.68C10657.3 3680.37 10663 3682.22 10670.3 3682.22ZM10820.5 3650.4L10831.3 3585.91H10848L10829.8 3695H10813.1L10816.2 3676.53H10815.1C10811.7 3682.07 10806.9 3686.79 10800.8 3690.67C10794.7 3694.5 10787.5 3696.42 10779.3 3696.42C10772.5 3696.42 10766.6 3694.93 10761.8 3691.95C10757 3688.92 10753.6 3684.37 10751.6 3678.31C10749.6 3672.2 10749.4 3664.51 10750.9 3655.23L10762.5 3585.91H10779.3L10767.9 3654.09C10766.6 3662.05 10767.8 3668.39 10771.5 3673.12C10775.2 3677.86 10780.6 3680.23 10787.5 3680.23C10791.7 3680.23 10796.1 3679.16 10800.7 3677.03C10805.4 3674.9 10809.6 3671.63 10813.2 3667.23C10816.9 3662.83 10819.3 3657.22 10820.5 3650.4ZM10926.2 3585.91L10923.9 3600.11H10867.4L10869.6 3585.91H10926.2ZM10890.4 3559.77H10907.1L10889.8 3663.75C10889.1 3668.48 10889.2 3672.04 10890.2 3674.4C10891.2 3676.72 10892.8 3678.29 10894.9 3679.09C10897 3679.85 10899.3 3680.23 10901.7 3680.23C10903.6 3680.23 10905.1 3680.13 10906.3 3679.94C10907.5 3679.71 10908.4 3679.52 10909.1 3679.38L10910.3 3694.43C10909 3694.86 10907.3 3695.28 10905.1 3695.71C10902.9 3696.18 10900.3 3696.42 10897.2 3696.42C10892.5 3696.42 10888 3695.4 10883.8 3693.37C10879.7 3691.33 10876.5 3688.23 10874.3 3684.06C10872 3679.9 10871.4 3674.64 10872.5 3668.3L10890.4 3559.77ZM10926.4 3735.91L10951.5 3585.91H10967.7L10964.9 3603.24H10966.9C10968.4 3601.34 10970.5 3598.93 10973.1 3595.99C10975.8 3593.01 10979.4 3590.36 10984 3588.04C10988.6 3585.67 10994.4 3584.49 11001.5 3584.49C11010.7 3584.49 11018.4 3586.79 11024.6 3591.38C11030.8 3595.97 11035.2 3602.48 11037.7 3610.91C11040.3 3619.34 11040.6 3629.28 11038.7 3640.74C11036.8 3652.29 11033.2 3662.31 11027.9 3670.78C11022.5 3679.21 11016 3685.74 11008.3 3690.38C11000.6 3694.98 10992.2 3697.27 10983.1 3697.27C10976.1 3697.27 10970.6 3696.11 10966.8 3693.79C10963 3691.43 10960.2 3688.75 10958.4 3685.77C10956.7 3682.74 10955.3 3680.23 10954.4 3678.24H10952.9L10943.3 3735.91H10926.4ZM10958.9 3640.45C10957.6 3648.69 10957.6 3655.96 10958.9 3662.26C10960.3 3668.51 10963 3673.41 10967.1 3676.96C10971.2 3680.46 10976.6 3682.22 10983.3 3682.22C10990.4 3682.22 10996.5 3680.37 11001.7 3676.68C11007 3672.94 11011.4 3667.92 11014.8 3661.62C11018.3 3655.27 11020.7 3648.22 11022 3640.45C11023.2 3632.78 11023.2 3625.87 11021.8 3619.72C11020.5 3613.51 11017.8 3608.61 11013.7 3605.01C11009.7 3601.37 11004.1 3599.55 10997 3599.55C10990.2 3599.55 10984.1 3601.27 10978.9 3604.73C10973.7 3608.14 10969.4 3612.92 10965.9 3619.08C10962.6 3625.18 10960.2 3632.31 10958.9 3640.45ZM11131.4 3650.4L11142.2 3585.91H11159L11140.8 3695H11124L11127.1 3676.53H11126C11122.6 3682.07 11117.8 3686.79 11111.7 3690.67C11105.6 3694.5 11098.5 3696.42 11090.2 3696.42C11083.4 3696.42 11077.6 3694.93 11072.7 3691.95C11068 3688.92 11064.6 3684.37 11062.5 3678.31C11060.5 3672.2 11060.3 3664.51 11061.8 3655.23L11073.5 3585.91H11090.2L11078.9 3654.09C11077.6 3662.05 11078.8 3668.39 11082.5 3673.12C11086.2 3677.86 11091.5 3680.23 11098.5 3680.23C11102.6 3680.23 11107 3679.16 11111.7 3677.03C11116.4 3674.9 11120.5 3671.63 11124.2 3667.23C11127.9 3662.83 11130.3 3657.22 11131.4 3650.4ZM11237.1 3585.91L11234.8 3600.11H11178.3L11180.6 3585.91H11237.1ZM11201.3 3559.77H11218.1L11200.7 3663.75C11200 3668.48 11200.1 3672.04 11201.1 3674.4C11202.1 3676.72 11203.7 3678.29 11205.8 3679.09C11207.9 3679.85 11210.2 3680.23 11212.7 3680.23C11214.5 3680.23 11216 3680.13 11217.2 3679.94C11218.4 3679.71 11219.4 3679.52 11220.1 3679.38L11221.2 3694.43C11219.9 3694.86 11218.2 3695.28 11216 3695.71C11213.9 3696.18 11211.3 3696.42 11208.1 3696.42C11203.4 3696.42 11198.9 3695.4 11194.8 3693.37C11190.6 3691.33 11187.4 3688.23 11185.2 3684.06C11183 3679.9 11182.4 3674.64 11183.4 3668.3L11201.3 3559.77ZM11304.5 3735.91C11301.7 3735.91 11299.2 3735.67 11297 3735.2C11294.9 3734.77 11293.4 3734.35 11292.6 3733.92L11299.4 3719.15C11303.3 3720.19 11306.7 3720.5 11309.8 3720.07C11312.8 3719.69 11315.8 3718.2 11318.5 3715.6C11321.3 3713.04 11324.2 3709.02 11327.2 3703.52L11331.9 3695L11310 3585.91H11327.5L11343.1 3673.12H11344.3L11388.9 3585.91H11407.8L11340.9 3710.77C11337.7 3716.59 11334.3 3721.35 11330.6 3725.04C11326.8 3728.74 11322.8 3731.46 11318.4 3733.21C11314.1 3735.01 11309.4 3735.91 11304.5 3735.91Z" fill="black"/>
<path d="M0 1536L18.1818 1426.91H34.9432L16.7614 1536H0ZM31.6761 1408.44C28.4091 1408.44 25.5919 1407.33 23.2244 1405.11C20.9044 1402.88 19.7443 1400.2 19.7443 1397.08C19.7443 1393.95 20.9044 1391.28 23.2244 1389.05C25.5919 1386.83 28.4091 1385.72 31.6761 1385.72C34.9432 1385.72 37.7367 1386.83 40.0568 1389.05C42.4242 1391.28 43.608 1393.95 43.608 1397.08C43.608 1400.2 42.4242 1402.88 40.0568 1405.11C37.7367 1407.33 34.9432 1408.44 31.6761 1408.44ZM75.0178 1470.38L64.2223 1536H47.4609L65.6428 1426.91H81.8359L78.995 1443.95H80.4155C83.8246 1438.41 88.4411 1433.96 94.2649 1430.6C100.089 1427.19 107.12 1425.49 115.359 1425.49C122.65 1425.49 128.806 1427 133.825 1430.03C138.891 1433.02 142.466 1437.56 144.549 1443.67C146.68 1449.73 146.987 1457.4 145.472 1466.68L133.825 1536H117.063L128.427 1467.82C129.847 1459.3 128.735 1452.62 125.089 1447.79C121.49 1442.96 115.785 1440.55 107.972 1440.55C102.575 1440.55 97.5793 1441.71 92.9865 1444.03C88.4411 1446.35 84.5822 1449.73 81.4098 1454.18C78.2848 1458.63 76.1541 1464.03 75.0178 1470.38ZM157.635 1576.91L182.777 1426.91H198.97L196.129 1444.24H198.118C199.633 1442.34 201.716 1439.93 204.368 1436.99C207.067 1434.01 210.689 1431.36 215.234 1429.04C219.827 1426.67 225.675 1425.49 232.777 1425.49C241.963 1425.49 249.657 1427.79 255.859 1432.38C262.062 1436.97 266.442 1443.48 268.999 1451.91C271.555 1460.34 271.887 1470.28 269.993 1481.74C268.099 1493.29 264.477 1503.31 259.126 1511.78C253.776 1520.21 247.242 1526.74 239.524 1531.38C231.806 1535.98 223.402 1538.27 214.311 1538.27C207.304 1538.27 201.882 1537.11 198.047 1534.79C194.212 1532.43 191.418 1529.75 189.666 1526.77C187.914 1523.74 186.565 1521.23 185.618 1519.24H184.197L174.538 1576.91H157.635ZM190.163 1481.45C188.838 1489.69 188.838 1496.96 190.163 1503.26C191.536 1509.51 194.259 1514.41 198.331 1517.96C202.45 1521.46 207.872 1523.22 214.595 1523.22C221.603 1523.22 227.734 1521.37 232.99 1517.68C238.293 1513.94 242.649 1508.92 246.058 1502.62C249.515 1496.27 251.906 1489.22 253.232 1481.45C254.463 1473.78 254.415 1466.87 253.089 1460.72C251.764 1454.51 249.065 1449.61 244.993 1446.01C240.921 1442.37 235.334 1440.55 228.232 1440.55C221.413 1440.55 215.376 1442.27 210.121 1445.73C204.912 1449.14 200.604 1453.92 197.195 1460.08C193.833 1466.18 191.489 1473.31 190.163 1481.45ZM362.66 1491.4L373.455 1426.91H390.217L372.035 1536H355.273L358.398 1517.53H357.262C353.853 1523.07 349.094 1527.79 342.987 1531.67C336.879 1535.5 329.705 1537.42 321.467 1537.42C314.648 1537.42 308.825 1535.93 303.995 1532.95C299.213 1529.92 295.804 1525.37 293.768 1519.31C291.779 1513.2 291.542 1505.51 293.058 1496.23L304.705 1426.91H321.467L310.103 1495.09C308.825 1503.05 310.032 1509.39 313.725 1514.12C317.418 1518.86 322.745 1521.23 329.705 1521.23C333.872 1521.23 338.275 1520.16 342.915 1518.03C347.603 1515.9 351.77 1512.63 355.415 1508.23C359.109 1503.83 361.523 1498.22 362.66 1491.4ZM468.359 1426.91L466.087 1441.11H409.553L411.825 1426.91H468.359ZM432.564 1400.77H449.325L431.996 1504.75C431.238 1509.48 431.357 1513.04 432.351 1515.4C433.393 1517.72 434.955 1519.29 437.038 1520.09C439.169 1520.85 441.465 1521.23 443.928 1521.23C445.774 1521.23 447.289 1521.13 448.473 1520.94C449.657 1520.71 450.604 1520.52 451.314 1520.38L452.45 1535.43C451.172 1535.86 449.444 1536.28 447.266 1536.71C445.135 1537.18 442.507 1537.42 439.382 1537.42C434.647 1537.42 430.196 1536.4 426.03 1534.37C421.863 1532.33 418.667 1529.23 416.442 1525.06C414.216 1520.9 413.625 1515.64 414.666 1509.3L432.564 1400.77ZM572.692 1538.27C563.554 1538.27 555.883 1535.98 549.68 1531.38C543.478 1526.74 539.098 1520.21 536.541 1511.78C534.032 1503.31 533.724 1493.29 535.618 1481.74C537.559 1470.28 541.181 1460.34 546.484 1451.91C551.835 1443.48 558.393 1436.97 566.158 1432.38C573.923 1427.79 582.398 1425.49 591.584 1425.49C598.686 1425.49 604.107 1426.67 607.848 1429.04C611.636 1431.36 614.382 1434.01 616.087 1436.99C617.791 1439.93 619.093 1442.34 619.993 1444.24H621.413L630.362 1390.55H647.124L622.976 1536H606.783L609.624 1519.24H607.635C606.072 1521.23 603.894 1523.74 601.101 1526.77C598.307 1529.75 594.614 1532.43 590.021 1534.79C585.476 1537.11 579.699 1538.27 572.692 1538.27ZM576.811 1523.22C583.535 1523.22 589.548 1521.46 594.851 1517.96C600.201 1514.41 604.652 1509.51 608.203 1503.26C611.754 1496.96 614.216 1489.69 615.589 1481.45C616.963 1473.31 616.915 1466.18 615.447 1460.08C613.98 1453.92 611.162 1449.14 606.996 1445.73C602.829 1442.27 597.313 1440.55 590.447 1440.55C583.393 1440.55 577.261 1442.37 572.053 1446.01C566.844 1449.61 562.607 1454.51 559.339 1460.72C556.072 1466.87 553.8 1473.78 552.521 1481.45C551.243 1489.22 551.219 1496.27 552.45 1502.62C553.681 1508.92 556.286 1513.94 560.263 1517.68C564.287 1521.37 569.804 1523.22 576.811 1523.22ZM687.678 1538.56C680.765 1538.56 674.704 1537.25 669.496 1534.65C664.287 1532 660.429 1528.19 657.919 1523.22C655.41 1518.2 654.723 1512.14 655.859 1505.03C656.948 1498.78 659.055 1493.72 662.18 1489.84C665.305 1485.91 669.093 1482.83 673.544 1480.6C678.042 1478.33 682.872 1476.65 688.033 1475.56C693.241 1474.42 698.426 1473.55 703.587 1472.93C710.31 1472.08 715.779 1471.42 719.993 1470.94C724.207 1470.47 727.379 1469.69 729.51 1468.6C731.641 1467.51 732.943 1465.64 733.416 1462.99V1462.42C734.553 1455.46 733.629 1450.04 730.646 1446.16C727.663 1442.23 722.337 1440.26 714.666 1440.26C706.712 1440.26 700.059 1442.01 694.709 1445.52C689.358 1449.02 685.405 1452.76 682.848 1456.74L668.075 1451.06C671.958 1444.43 676.598 1439.27 681.996 1435.57C687.393 1431.83 693.052 1429.23 698.97 1427.76C704.889 1426.25 710.594 1425.49 716.087 1425.49C719.59 1425.49 723.544 1425.91 727.947 1426.77C732.351 1427.57 736.47 1429.25 740.305 1431.81C744.188 1434.37 747.1 1438.23 749.041 1443.39C751.03 1448.55 751.314 1455.46 749.893 1464.12L737.962 1536H721.2L723.757 1521.23H722.905C721.39 1523.59 719.07 1526.13 715.945 1528.83C712.867 1531.53 708.961 1533.82 704.226 1535.72C699.538 1537.61 694.022 1538.56 687.678 1538.56ZM692.507 1523.5C699.136 1523.5 704.936 1522.2 709.908 1519.59C714.927 1516.99 718.951 1513.63 721.982 1509.51C725.059 1505.39 726.977 1501.06 727.734 1496.51L730.291 1481.17C729.439 1482.02 727.758 1482.8 725.249 1483.51C722.739 1484.18 719.898 1484.77 716.726 1485.29C713.601 1485.76 710.547 1486.19 707.564 1486.57C704.628 1486.9 702.261 1487.18 700.462 1487.42C696.011 1487.99 691.773 1488.91 687.749 1490.19C683.771 1491.42 680.41 1493.29 677.663 1495.8C674.964 1498.26 673.284 1501.62 672.621 1505.89C671.626 1511.71 673.023 1516.11 676.811 1519.1C680.599 1522.03 685.831 1523.5 692.507 1523.5ZM834.18 1426.91L831.907 1441.11H775.373L777.646 1426.91H834.18ZM798.384 1400.77H815.146L797.816 1504.75C797.058 1509.48 797.177 1513.04 798.171 1515.4C799.213 1517.72 800.775 1519.29 802.859 1520.09C804.989 1520.85 807.286 1521.23 809.748 1521.23C811.594 1521.23 813.11 1521.13 814.293 1520.94C815.477 1520.71 816.424 1520.52 817.134 1520.38L818.271 1535.43C816.992 1535.86 815.264 1536.28 813.086 1536.71C810.955 1537.18 808.327 1537.42 805.202 1537.42C800.468 1537.42 796.017 1536.4 791.85 1534.37C787.683 1532.33 784.487 1529.23 782.262 1525.06C780.037 1520.9 779.445 1515.64 780.487 1509.3L798.384 1400.77ZM873.029 1538.56C866.116 1538.56 860.056 1537.25 854.847 1534.65C849.639 1532 845.78 1528.19 843.271 1523.22C840.761 1518.2 840.075 1512.14 841.211 1505.03C842.3 1498.78 844.407 1493.72 847.532 1489.84C850.657 1485.91 854.445 1482.83 858.896 1480.6C863.394 1478.33 868.223 1476.65 873.384 1475.56C878.593 1474.42 883.777 1473.55 888.938 1472.93C895.662 1472.08 901.13 1471.42 905.344 1470.94C909.558 1470.47 912.731 1469.69 914.862 1468.6C916.992 1467.51 918.294 1465.64 918.768 1462.99V1462.42C919.904 1455.46 918.981 1450.04 915.998 1446.16C913.015 1442.23 907.688 1440.26 900.018 1440.26C892.063 1440.26 885.411 1442.01 880.06 1445.52C874.71 1449.02 870.756 1452.76 868.2 1456.74L853.427 1451.06C857.309 1444.43 861.95 1439.27 867.347 1435.57C872.745 1431.83 878.403 1429.23 884.322 1427.76C890.24 1426.25 895.946 1425.49 901.438 1425.49C904.942 1425.49 908.896 1425.91 913.299 1426.77C917.702 1427.57 921.822 1429.25 925.657 1431.81C929.54 1434.37 932.451 1438.23 934.393 1443.39C936.381 1448.55 936.665 1455.46 935.245 1464.12L923.313 1536H906.552L909.109 1521.23H908.256C906.741 1523.59 904.421 1526.13 901.296 1528.83C898.219 1531.53 894.312 1533.82 889.577 1535.72C884.89 1537.61 879.374 1538.56 873.029 1538.56ZM877.859 1523.5C884.487 1523.5 890.288 1522.2 895.259 1519.59C900.278 1516.99 904.303 1513.63 907.333 1509.51C910.411 1505.39 912.328 1501.06 913.086 1496.51L915.643 1481.17C914.79 1482.02 913.11 1482.8 910.6 1483.51C908.091 1484.18 905.25 1484.77 902.077 1485.29C898.952 1485.76 895.898 1486.19 892.915 1486.57C889.98 1486.9 887.612 1487.18 885.813 1487.42C881.362 1487.99 877.125 1488.91 873.1 1490.19C869.123 1491.42 865.761 1493.29 863.015 1495.8C860.316 1498.26 858.635 1501.62 857.972 1505.89C856.978 1511.71 858.375 1516.11 862.163 1519.1C865.951 1522.03 871.183 1523.5 877.859 1523.5ZM1040.84 1426.91L1059.59 1471.51L1093.11 1426.91H1112.43L1068.11 1481.45L1094.25 1536H1074.93L1055.89 1493.67L1022.66 1536H1003.34L1047.09 1481.45L1021.52 1426.91H1040.84Z" fill="black"/>
<path d="M1260 194L1278.18 84.9091H1294.94L1276.76 194H1260ZM1291.68 66.4432C1288.41 66.4432 1285.59 65.3305 1283.22 63.1051C1280.9 60.8797 1279.74 58.2045 1279.74 55.0795C1279.74 51.9545 1280.9 49.2794 1283.22 47.054C1285.59 44.8286 1288.41 43.7159 1291.68 43.7159C1294.94 43.7159 1297.74 44.8286 1300.06 47.054C1302.42 49.2794 1303.61 51.9545 1303.61 55.0795C1303.61 58.2045 1302.42 60.8797 1300.06 63.1051C1297.74 65.3305 1294.94 66.4432 1291.68 66.4432ZM1335.02 128.375L1324.22 194H1307.46L1325.64 84.9091H1341.84L1339 101.955H1340.42C1343.82 96.4148 1348.44 91.964 1354.26 88.6023C1360.09 85.1932 1367.12 83.4886 1375.36 83.4886C1382.65 83.4886 1388.81 85.0038 1393.82 88.0341C1398.89 91.017 1402.47 95.5625 1404.55 101.67C1406.68 107.731 1406.99 115.402 1405.47 124.682L1393.82 194H1377.06L1388.43 125.818C1389.85 117.295 1388.73 110.619 1385.09 105.79C1381.49 100.96 1375.78 98.5455 1367.97 98.5455C1362.57 98.5455 1357.58 99.7055 1352.99 102.026C1348.44 104.346 1344.58 107.731 1341.41 112.182C1338.28 116.633 1336.15 122.03 1335.02 128.375ZM1417.63 234.909L1442.78 84.9091H1458.97L1456.13 102.239H1458.12C1459.63 100.345 1461.72 97.9299 1464.37 94.9943C1467.07 92.0114 1470.69 89.3598 1475.23 87.0398C1479.83 84.6723 1485.67 83.4886 1492.78 83.4886C1501.96 83.4886 1509.66 85.785 1515.86 90.3778C1522.06 94.9706 1526.44 101.481 1529 109.909C1531.56 118.337 1531.89 128.28 1529.99 139.739C1528.1 151.292 1524.48 161.306 1519.13 169.781C1513.78 178.209 1507.24 184.743 1499.52 189.384C1491.81 193.976 1483.4 196.273 1474.31 196.273C1467.3 196.273 1461.88 195.113 1458.05 192.793C1454.21 190.425 1451.42 187.75 1449.67 184.767C1447.91 181.737 1446.56 179.227 1445.62 177.239H1444.2L1434.54 234.909H1417.63ZM1450.16 139.455C1448.84 147.693 1448.84 154.961 1450.16 161.259C1451.54 167.509 1454.26 172.409 1458.33 175.96C1462.45 179.464 1467.87 181.216 1474.6 181.216C1481.6 181.216 1487.73 179.369 1492.99 175.676C1498.29 171.936 1502.65 166.917 1506.06 160.619C1509.51 154.275 1511.91 147.22 1513.23 139.455C1514.46 131.784 1514.42 124.871 1513.09 118.716C1511.76 112.513 1509.06 107.613 1504.99 104.014C1500.92 100.368 1495.33 98.5455 1488.23 98.5455C1481.41 98.5455 1475.38 100.274 1470.12 103.73C1464.91 107.139 1460.6 111.921 1457.19 118.077C1453.83 124.185 1451.49 131.311 1450.16 139.455ZM1622.66 149.398L1633.46 84.9091H1650.22L1632.03 194H1615.27L1618.4 175.534H1617.26C1613.85 181.074 1609.09 185.785 1602.99 189.668C1596.88 193.503 1589.71 195.42 1581.47 195.42C1574.65 195.42 1568.82 193.929 1564 190.946C1559.21 187.916 1555.8 183.37 1553.77 177.31C1551.78 171.202 1551.54 163.508 1553.06 154.227L1564.71 84.9091H1581.47L1570.1 153.091C1568.82 161.045 1570.03 167.39 1573.73 172.125C1577.42 176.86 1582.75 179.227 1589.71 179.227C1593.87 179.227 1598.28 178.162 1602.92 176.031C1607.6 173.901 1611.77 170.634 1615.42 166.23C1619.11 161.827 1621.52 156.216 1622.66 149.398ZM1728.36 84.9091L1726.09 99.1136H1669.55L1671.83 84.9091H1728.36ZM1692.56 58.7727H1709.33L1692 162.75C1691.24 167.485 1691.36 171.036 1692.35 173.403C1693.39 175.723 1694.96 177.286 1697.04 178.091C1699.17 178.848 1701.47 179.227 1703.93 179.227C1705.77 179.227 1707.29 179.133 1708.47 178.943C1709.66 178.706 1710.6 178.517 1711.31 178.375L1712.45 193.432C1711.17 193.858 1709.44 194.284 1707.27 194.71C1705.13 195.184 1702.51 195.42 1699.38 195.42C1694.65 195.42 1690.2 194.402 1686.03 192.366C1681.86 190.33 1678.67 187.229 1676.44 183.062C1674.22 178.896 1673.62 173.64 1674.67 167.295L1692.56 58.7727ZM1832.55 48.5455L1808.4 194H1791.64L1815.79 48.5455H1832.55ZM1870.92 196.557C1864.01 196.557 1857.95 195.255 1852.74 192.651C1847.53 189.999 1843.67 186.188 1841.16 181.216C1838.65 176.197 1837.97 170.136 1839.1 163.034C1840.19 156.784 1842.3 151.718 1845.42 147.835C1848.55 143.905 1852.34 140.828 1856.79 138.602C1861.28 136.33 1866.11 134.649 1871.27 133.56C1876.48 132.423 1881.67 131.547 1886.83 130.932C1893.55 130.08 1899.02 129.417 1903.24 128.943C1907.45 128.47 1910.62 127.688 1912.75 126.599C1914.88 125.51 1916.18 123.64 1916.66 120.989V120.42C1917.79 113.46 1916.87 108.039 1913.89 104.156C1910.91 100.226 1905.58 98.2614 1897.91 98.2614C1889.95 98.2614 1883.3 100.013 1877.95 103.517C1872.6 107.021 1868.65 110.761 1866.09 114.739L1851.32 109.057C1855.2 102.428 1859.84 97.267 1865.24 93.5739C1870.64 89.8333 1876.29 87.2292 1882.21 85.7614C1888.13 84.2462 1893.84 83.4886 1899.33 83.4886C1902.83 83.4886 1906.79 83.9148 1911.19 84.767C1915.59 85.572 1919.71 87.2528 1923.55 89.8097C1927.43 92.3665 1930.34 96.2254 1932.28 101.386C1934.27 106.547 1934.56 113.46 1933.14 122.125L1921.2 194H1904.44L1907 179.227H1906.15C1904.63 181.595 1902.31 184.128 1899.19 186.827C1896.11 189.526 1892.2 191.822 1887.47 193.716C1882.78 195.61 1877.26 196.557 1870.92 196.557ZM1875.75 181.5C1882.38 181.5 1888.18 180.198 1893.15 177.594C1898.17 174.99 1902.19 171.628 1905.22 167.509C1908.3 163.389 1910.22 159.057 1910.98 154.511L1913.53 139.17C1912.68 140.023 1911 140.804 1908.49 141.514C1905.98 142.177 1903.14 142.769 1899.97 143.29C1896.84 143.763 1893.79 144.189 1890.81 144.568C1887.87 144.9 1885.5 145.184 1883.7 145.42C1879.25 145.989 1875.02 146.912 1870.99 148.19C1867.01 149.421 1863.65 151.292 1860.91 153.801C1858.21 156.263 1856.53 159.625 1855.86 163.886C1854.87 169.71 1856.27 174.114 1860.05 177.097C1863.84 180.032 1869.07 181.5 1875.75 181.5ZM1952.01 234.909C1949.17 234.909 1946.66 234.672 1944.48 234.199C1942.35 233.773 1940.88 233.347 1940.08 232.92L1946.9 218.148C1950.78 219.189 1954.24 219.497 1957.27 219.071C1960.34 218.692 1963.26 217.201 1966 214.597C1968.79 212.04 1971.71 208.015 1974.74 202.523L1979.42 194L1957.55 84.9091H1975.02L1990.65 172.125H1991.78L2036.38 84.9091H2055.28L1988.37 209.767C1985.25 215.591 1981.82 220.349 1978.08 224.043C1974.33 227.736 1970.29 230.458 1965.93 232.21C1961.57 234.009 1956.93 234.909 1952.01 234.909ZM2100.77 196.273C2090.3 196.273 2081.66 193.953 2074.84 189.312C2068.03 184.625 2063.27 178.091 2060.57 169.71C2057.87 161.282 2057.44 151.481 2059.29 140.307C2061.14 129.133 2064.81 119.284 2070.3 110.761C2075.79 102.191 2082.63 95.5152 2090.82 90.733C2099.02 85.9034 2108.01 83.4886 2117.81 83.4886C2123.49 83.4886 2128.96 84.4356 2134.22 86.3295C2139.47 88.2235 2144.02 91.3011 2147.86 95.5625C2151.69 99.7765 2154.37 105.364 2155.88 112.324C2157.4 119.284 2157.3 127.854 2155.6 138.034L2154.46 145.136H2070.37L2072.64 130.648H2139.69C2140.78 124.492 2140.49 119 2138.84 114.17C2137.23 109.341 2134.41 105.529 2130.38 102.736C2126.41 99.9422 2121.36 98.5455 2115.26 98.5455C2108.96 98.5455 2103.09 100.25 2097.64 103.659C2092.2 107.021 2087.65 111.282 2084.01 116.443C2080.36 121.557 2078.09 126.765 2077.19 132.068L2075.2 144.568C2073.78 153.612 2073.99 160.809 2075.84 166.159C2077.73 171.509 2081.02 175.368 2085.71 177.736C2090.4 180.056 2096.27 181.216 2103.32 181.216C2107.82 181.216 2111.96 180.6 2115.75 179.369C2119.54 178.091 2122.93 176.197 2125.91 173.688C2128.89 171.131 2131.4 167.958 2133.44 164.17L2148.78 168.716C2146.17 174.208 2142.5 179.038 2137.77 183.205C2133.08 187.324 2127.59 190.544 2121.29 192.864C2115.04 195.136 2108.2 196.273 2100.77 196.273ZM2172.11 194L2190.29 84.9091H2206.48L2203.64 101.386H2204.78C2207.62 95.9886 2211.95 91.6089 2217.78 88.2472C2223.6 84.8854 2229.78 83.2045 2236.31 83.2045C2237.59 83.2045 2239.13 83.2282 2240.93 83.2756C2242.73 83.2756 2244.13 83.3466 2245.12 83.4886L2242.28 100.534C2241.71 100.392 2240.43 100.179 2238.44 99.8949C2236.46 99.5634 2234.33 99.3977 2232.05 99.3977C2226.75 99.3977 2221.85 100.51 2217.35 102.736C2212.85 104.914 2209.09 107.944 2206.06 111.827C2203.03 115.662 2201.09 120.042 2200.23 124.966L2188.87 194H2172.11Z" fill="black"/>
<path d="M1246.68 414.929C1242.77 418.834 1242.77 425.166 1246.68 429.071L1310.32 492.711C1314.22 496.616 1320.56 496.616 1324.46 492.711C1328.37 488.805 1328.37 482.474 1324.46 478.569L1267.89 422L1324.46 365.431C1328.37 361.526 1328.37 355.195 1324.46 351.289C1320.56 347.384 1314.22 347.384 1310.32 351.289L1246.68 414.929ZM2287.9 429.071C2291.8 425.166 2291.8 418.834 2287.9 414.929L2224.26 351.289C2220.35 347.384 2214.02 347.384 2210.12 351.289C2206.21 355.195 2206.21 361.526 2210.12 365.431L2266.69 422L2210.12 478.569C2206.21 482.474 2206.21 488.805 2210.12 492.711C2214.02 496.616 2220.35 496.616 2224.26 492.711L2287.9 429.071ZM1253.75 422V432H2280.83V422V412H1253.75V422Z" fill="black"/>
<path d="M5460.56 1580.38L5449.76 1646H5433L5457.15 1500.55H5473.91L5465.1 1553.95H5466.52C5469.93 1548.27 5474.48 1543.77 5480.16 1540.46C5485.89 1537.15 5493.09 1535.49 5501.75 1535.49C5509.14 1535.49 5515.36 1536.98 5520.43 1539.96C5525.54 1542.9 5529.14 1547.42 5531.22 1553.53C5533.36 1559.59 5533.66 1567.31 5532.15 1576.68L5520.5 1646H5503.74L5515.1 1577.82C5516.52 1569.15 5515.36 1562.45 5511.62 1557.72C5507.93 1552.94 5502.18 1550.55 5494.36 1550.55C5488.87 1550.55 5483.76 1551.71 5479.02 1554.03C5474.34 1556.35 5470.36 1559.73 5467.09 1564.18C5463.87 1568.63 5461.69 1574.03 5460.56 1580.38ZM5551.16 1646L5569.35 1536.91H5586.11L5567.93 1646H5551.16ZM5582.84 1518.44C5579.57 1518.44 5576.76 1517.33 5574.39 1515.11C5572.07 1512.88 5570.91 1510.2 5570.91 1507.08C5570.91 1503.95 5572.07 1501.28 5574.39 1499.05C5576.76 1496.83 5579.57 1495.72 5582.84 1495.72C5586.11 1495.72 5588.9 1496.83 5591.22 1499.05C5593.59 1501.28 5594.77 1503.95 5594.77 1507.08C5594.77 1510.2 5593.59 1512.88 5591.22 1515.11C5588.9 1517.33 5586.11 1518.44 5582.84 1518.44ZM5639.68 1648.27C5630.54 1648.27 5622.87 1645.98 5616.66 1641.38C5610.46 1636.74 5606.08 1630.21 5603.53 1621.78C5601.02 1613.31 5600.71 1603.29 5602.6 1591.74C5604.54 1580.28 5608.17 1570.34 5613.47 1561.91C5618.82 1553.48 5625.38 1546.97 5633.14 1542.38C5640.91 1537.79 5649.38 1535.49 5658.57 1535.49C5665.67 1535.49 5671.09 1536.67 5674.83 1539.04C5678.62 1541.36 5681.37 1544.01 5683.07 1546.99C5684.78 1549.93 5686.08 1552.34 5686.98 1554.24H5688.4L5697.35 1500.55H5714.11L5689.96 1646H5673.77L5676.61 1629.24H5674.62C5673.06 1631.23 5670.88 1633.74 5668.09 1636.77C5665.29 1639.75 5661.6 1642.43 5657.01 1644.79C5652.46 1647.11 5646.68 1648.27 5639.68 1648.27ZM5643.8 1633.22C5650.52 1633.22 5656.53 1631.46 5661.84 1627.96C5667.19 1624.41 5671.64 1619.51 5675.19 1613.26C5678.74 1606.96 5681.2 1599.69 5682.57 1591.45C5683.95 1583.31 5683.9 1576.18 5682.43 1570.08C5680.96 1563.92 5678.15 1559.14 5673.98 1555.73C5669.81 1552.27 5664.3 1550.55 5657.43 1550.55C5650.38 1550.55 5644.25 1552.37 5639.04 1556.01C5633.83 1559.61 5629.59 1564.51 5626.32 1570.72C5623.06 1576.87 5620.78 1583.78 5619.51 1591.45C5618.23 1599.22 5618.2 1606.27 5619.43 1612.62C5620.67 1618.92 5623.27 1623.94 5627.25 1627.68C5631.27 1631.37 5636.79 1633.22 5643.8 1633.22ZM5763.89 1648.27C5754.76 1648.27 5747.09 1645.98 5740.88 1641.38C5734.68 1636.74 5730.3 1630.21 5727.74 1621.78C5725.23 1613.31 5724.93 1603.29 5726.82 1591.74C5728.76 1580.28 5732.38 1570.34 5737.69 1561.91C5743.04 1553.48 5749.6 1546.97 5757.36 1542.38C5765.13 1537.79 5773.6 1535.49 5782.79 1535.49C5789.89 1535.49 5795.31 1536.67 5799.05 1539.04C5802.84 1541.36 5805.59 1544.01 5807.29 1546.99C5808.99 1549.93 5810.3 1552.34 5811.2 1554.24H5812.62L5821.57 1500.55H5838.33L5814.18 1646H5797.99L5800.83 1629.24H5798.84C5797.28 1631.23 5795.1 1633.74 5792.3 1636.77C5789.51 1639.75 5785.82 1642.43 5781.22 1644.79C5776.68 1647.11 5770.9 1648.27 5763.89 1648.27ZM5768.01 1633.22C5774.74 1633.22 5780.75 1631.46 5786.05 1627.96C5791.4 1624.41 5795.86 1619.51 5799.41 1613.26C5802.96 1606.96 5805.42 1599.69 5806.79 1591.45C5808.17 1583.31 5808.12 1576.18 5806.65 1570.08C5805.18 1563.92 5802.37 1559.14 5798.2 1555.73C5794.03 1552.27 5788.52 1550.55 5781.65 1550.55C5774.6 1550.55 5768.46 1552.37 5763.26 1556.01C5758.05 1559.61 5753.81 1564.51 5750.54 1570.72C5747.28 1576.87 5745 1583.78 5743.72 1591.45C5742.45 1599.22 5742.42 1606.27 5743.65 1612.62C5744.88 1618.92 5747.49 1623.94 5751.47 1627.68C5755.49 1631.37 5761.01 1633.22 5768.01 1633.22ZM5892.52 1648.27C5882.05 1648.27 5873.41 1645.95 5866.59 1641.31C5859.78 1636.62 5855.02 1630.09 5852.32 1621.71C5849.62 1613.28 5849.19 1603.48 5851.04 1592.31C5852.89 1581.13 5856.56 1571.28 5862.05 1562.76C5867.54 1554.19 5874.38 1547.52 5882.57 1542.73C5890.77 1537.9 5899.76 1535.49 5909.56 1535.49C5915.24 1535.49 5920.71 1536.44 5925.97 1538.33C5931.22 1540.22 5935.77 1543.3 5939.61 1547.56C5943.44 1551.78 5946.12 1557.36 5947.63 1564.32C5949.15 1571.28 5949.05 1579.85 5947.35 1590.03L5946.21 1597.14H5862.12L5864.39 1582.65H5931.44C5932.53 1576.49 5932.24 1571 5930.59 1566.17C5928.98 1561.34 5926.16 1557.53 5922.13 1554.74C5918.16 1551.94 5913.11 1550.55 5907.01 1550.55C5900.71 1550.55 5894.84 1552.25 5889.39 1555.66C5883.95 1559.02 5879.4 1563.28 5875.76 1568.44C5872.11 1573.56 5869.84 1578.77 5868.94 1584.07L5866.95 1596.57C5865.53 1605.61 5865.74 1612.81 5867.59 1618.16C5869.48 1623.51 5872.77 1627.37 5877.46 1629.74C5882.15 1632.06 5888.02 1633.22 5895.07 1633.22C5899.57 1633.22 5903.71 1632.6 5907.5 1631.37C5911.29 1630.09 5914.68 1628.2 5917.66 1625.69C5920.64 1623.13 5923.15 1619.96 5925.19 1616.17L5940.53 1620.72C5937.92 1626.21 5934.25 1631.04 5929.52 1635.2C5924.83 1639.32 5919.34 1642.54 5913.04 1644.86C5906.79 1647.14 5899.95 1648.27 5892.52 1648.27ZM5991.42 1580.38L5980.62 1646H5963.86L5982.04 1536.91H5998.23L5995.39 1553.95H5996.81C6000.22 1548.41 6004.84 1543.96 6010.66 1540.6C6016.49 1537.19 6023.52 1535.49 6031.76 1535.49C6039.05 1535.49 6045.2 1537 6050.22 1540.03C6055.29 1543.02 6058.86 1547.56 6060.95 1553.67C6063.08 1559.73 6063.39 1567.4 6061.87 1576.68L6050.22 1646H6033.46L6044.83 1577.82C6046.25 1569.3 6045.13 1562.62 6041.49 1557.79C6037.89 1552.96 6032.18 1550.55 6024.37 1550.55C6018.97 1550.55 6013.98 1551.71 6009.38 1554.03C6004.84 1556.35 6000.98 1559.73 5997.81 1564.18C5994.68 1568.63 5992.55 1574.03 5991.42 1580.38ZM6178.01 1500.55L6153.86 1646H6137.1L6161.25 1500.55H6178.01ZM6216.38 1648.56C6209.47 1648.56 6203.41 1647.25 6198.2 1644.65C6192.99 1642 6189.13 1638.19 6186.62 1633.22C6184.11 1628.2 6183.43 1622.14 6184.56 1615.03C6185.65 1608.78 6187.76 1603.72 6190.88 1599.84C6194.01 1595.91 6197.8 1592.83 6202.25 1590.6C6206.75 1588.33 6211.57 1586.65 6216.74 1585.56C6221.94 1584.42 6227.13 1583.55 6232.29 1582.93C6239.01 1582.08 6244.48 1581.42 6248.7 1580.94C6252.91 1580.47 6256.08 1579.69 6258.21 1578.6C6260.34 1577.51 6261.65 1575.64 6262.12 1572.99V1572.42C6263.26 1565.46 6262.33 1560.04 6259.35 1556.16C6256.37 1552.23 6251.04 1550.26 6243.37 1550.26C6235.41 1550.26 6228.76 1552.01 6223.41 1555.52C6218.06 1559.02 6214.11 1562.76 6211.55 1566.74L6196.78 1561.06C6200.66 1554.43 6205.3 1549.27 6210.7 1545.57C6216.1 1541.83 6221.75 1539.23 6227.67 1537.76C6233.59 1536.25 6239.3 1535.49 6244.79 1535.49C6248.29 1535.49 6252.25 1535.91 6256.65 1536.77C6261.05 1537.57 6265.17 1539.25 6269.01 1541.81C6272.89 1544.37 6275.8 1548.23 6277.74 1553.39C6279.73 1558.55 6280.02 1565.46 6278.6 1574.12L6266.66 1646H6249.9L6252.46 1631.23H6251.61C6250.09 1633.59 6247.77 1636.13 6244.65 1638.83C6241.57 1641.53 6237.66 1643.82 6232.93 1645.72C6228.24 1647.61 6222.73 1648.56 6216.38 1648.56ZM6221.21 1633.5C6227.84 1633.5 6233.64 1632.2 6238.61 1629.59C6243.63 1626.99 6247.65 1623.63 6250.68 1619.51C6253.76 1615.39 6255.68 1611.06 6256.44 1606.51L6258.99 1591.17C6258.14 1592.02 6256.46 1592.8 6253.95 1593.51C6251.44 1594.18 6248.6 1594.77 6245.43 1595.29C6242.3 1595.76 6239.25 1596.19 6236.27 1596.57C6233.33 1596.9 6230.96 1597.18 6229.16 1597.42C6224.71 1597.99 6220.48 1598.91 6216.45 1600.19C6212.47 1601.42 6209.11 1603.29 6206.37 1605.8C6203.67 1608.26 6201.99 1611.62 6201.32 1615.89C6200.33 1621.71 6201.73 1626.11 6205.51 1629.1C6209.3 1632.03 6214.53 1633.5 6221.21 1633.5ZM6297.47 1686.91C6294.63 1686.91 6292.12 1686.67 6289.94 1686.2C6287.81 1685.77 6286.34 1685.35 6285.54 1684.92L6292.36 1670.15C6296.24 1671.19 6299.7 1671.5 6302.73 1671.07C6305.8 1670.69 6308.72 1669.2 6311.46 1666.6C6314.26 1664.04 6317.17 1660.02 6320.2 1654.52L6324.89 1646L6303.01 1536.91H6320.48L6336.11 1624.12H6337.24L6381.85 1536.91H6400.74L6333.83 1661.77C6330.71 1667.59 6327.28 1672.35 6323.54 1676.04C6319.8 1679.74 6315.75 1682.46 6311.39 1684.21C6307.04 1686.01 6302.4 1686.91 6297.47 1686.91ZM6446.23 1648.27C6435.76 1648.27 6427.12 1645.95 6420.3 1641.31C6413.49 1636.62 6408.73 1630.09 6406.03 1621.71C6403.33 1613.28 6402.9 1603.48 6404.75 1592.31C6406.6 1581.13 6410.27 1571.28 6415.76 1562.76C6421.25 1554.19 6428.09 1547.52 6436.28 1542.73C6444.48 1537.9 6453.47 1535.49 6463.27 1535.49C6468.96 1535.49 6474.42 1536.44 6479.68 1538.33C6484.94 1540.22 6489.48 1543.3 6493.32 1547.56C6497.15 1551.78 6499.83 1557.36 6501.34 1564.32C6502.86 1571.28 6502.76 1579.85 6501.06 1590.03L6499.92 1597.14H6415.83L6418.1 1582.65H6485.15C6486.24 1576.49 6485.95 1571 6484.3 1566.17C6482.69 1561.34 6479.87 1557.53 6475.84 1554.74C6471.87 1551.94 6466.82 1550.55 6460.72 1550.55C6454.42 1550.55 6448.55 1552.25 6443.1 1555.66C6437.66 1559.02 6433.11 1563.28 6429.47 1568.44C6425.82 1573.56 6423.55 1578.77 6422.65 1584.07L6420.66 1596.57C6419.24 1605.61 6419.45 1612.81 6421.3 1618.16C6423.19 1623.51 6426.48 1627.37 6431.17 1629.74C6435.86 1632.06 6441.73 1633.22 6448.78 1633.22C6453.28 1633.22 6457.43 1632.6 6461.21 1631.37C6465 1630.09 6468.39 1628.2 6471.37 1625.69C6474.35 1623.13 6476.86 1619.96 6478.9 1616.17L6494.24 1620.72C6491.64 1626.21 6487.97 1631.04 6483.23 1635.2C6478.54 1639.32 6473.05 1642.54 6466.75 1644.86C6460.5 1647.14 6453.66 1648.27 6446.23 1648.27ZM6517.57 1646L6535.75 1536.91H6551.95L6549.1 1553.39H6550.24C6553.08 1547.99 6557.41 1543.61 6563.24 1540.25C6569.06 1536.89 6575.24 1535.2 6581.77 1535.2C6583.05 1535.2 6584.59 1535.23 6586.39 1535.28C6588.19 1535.28 6589.59 1535.35 6590.58 1535.49L6587.74 1552.53C6587.17 1552.39 6585.89 1552.18 6583.91 1551.89C6581.92 1551.56 6579.79 1551.4 6577.51 1551.4C6572.21 1551.4 6567.31 1552.51 6562.81 1554.74C6558.31 1556.91 6554.55 1559.94 6551.52 1563.83C6548.49 1567.66 6546.55 1572.04 6545.7 1576.97L6534.33 1646H6517.57Z" fill="black"/>
<path d="M5419.68 1866.93C5415.77 1870.83 5415.77 1877.17 5419.68 1881.07L5483.32 1944.71C5487.22 1948.62 5493.56 1948.62 5497.46 1944.71C5501.37 1940.81 5501.37 1934.47 5497.46 1930.57L5440.89 1874L5497.46 1817.43C5501.37 1813.53 5501.37 1807.19 5497.46 1803.29C5493.56 1799.38 5487.22 1799.38 5483.32 1803.29L5419.68 1866.93ZM6460.9 1881.07C6464.8 1877.17 6464.8 1870.83 6460.9 1866.93L6397.26 1803.29C6393.35 1799.38 6387.02 1799.38 6383.12 1803.29C6379.21 1807.19 6379.21 1813.53 6383.12 1817.43L6439.69 1874L6383.12 1930.57C6379.21 1934.47 6379.21 1940.81 6383.12 1944.71C6387.02 1948.62 6393.35 1948.62 6397.26 1944.71L6460.9 1881.07ZM5426.75 1874V1884H6453.83V1874V1864H5426.75V1874Z" fill="black"/>
<path d="M9648.03 2537.27C9637.99 2537.27 9629.59 2534.88 9622.82 2530.1C9616.04 2525.32 9611.26 2518.62 9608.47 2510C9605.72 2501.38 9605.27 2491.34 9607.12 2479.89C9608.92 2468.71 9612.49 2458.98 9617.84 2450.7C9623.24 2442.36 9629.94 2435.92 9637.94 2431.38C9645.99 2426.79 9654.85 2424.49 9664.51 2424.49C9674.54 2424.49 9682.92 2426.9 9689.65 2431.73C9696.42 2436.52 9701.2 2443.24 9703.99 2451.9C9706.79 2460.52 9707.26 2470.61 9705.41 2482.16C9703.62 2493.24 9699.99 2502.92 9694.55 2511.21C9689.15 2519.45 9682.45 2525.86 9674.45 2530.45C9666.49 2535 9657.69 2537.27 9648.03 2537.27ZM9648.31 2522.22C9655.98 2522.22 9662.64 2520.25 9668.27 2516.32C9673.95 2512.39 9678.54 2507.21 9682.05 2500.77C9685.6 2494.33 9687.99 2487.37 9689.22 2479.89C9690.36 2472.78 9690.31 2466.18 9689.08 2460.07C9687.85 2453.92 9685.22 2448.97 9681.2 2445.23C9677.17 2441.44 9671.51 2439.55 9664.22 2439.55C9656.55 2439.55 9649.85 2441.53 9644.12 2445.51C9638.44 2449.49 9633.85 2454.72 9630.34 2461.21C9626.84 2467.69 9624.5 2474.68 9623.31 2482.16C9622.18 2489.26 9622.2 2495.87 9623.38 2501.97C9624.61 2508.04 9627.24 2512.94 9631.27 2516.68C9635.34 2520.37 9641.02 2522.22 9648.31 2522.22ZM9798.47 2490.4L9809.27 2425.91H9826.03L9807.85 2535H9791.09L9794.21 2516.53H9793.07C9789.67 2522.07 9784.91 2526.79 9778.8 2530.67C9772.69 2534.5 9765.52 2536.42 9757.28 2536.42C9750.46 2536.42 9744.64 2534.93 9739.81 2531.95C9735.03 2528.92 9731.62 2524.37 9729.58 2518.31C9727.59 2512.2 9727.35 2504.51 9728.87 2495.23L9740.52 2425.91H9757.28L9745.92 2494.09C9744.64 2502.05 9745.84 2508.39 9749.54 2513.12C9753.23 2517.86 9758.56 2520.23 9765.52 2520.23C9769.68 2520.23 9774.09 2519.16 9778.73 2517.03C9783.42 2514.9 9787.58 2511.63 9791.23 2507.23C9794.92 2502.83 9797.34 2497.22 9798.47 2490.4ZM9904.17 2425.91L9901.9 2440.11H9845.37L9847.64 2425.91H9904.17ZM9868.38 2399.77H9885.14L9867.81 2503.75C9867.05 2508.48 9867.17 2512.04 9868.16 2514.4C9869.21 2516.72 9870.77 2518.29 9872.85 2519.09C9874.98 2519.85 9877.28 2520.23 9879.74 2520.23C9881.59 2520.23 9883.1 2520.13 9884.29 2519.94C9885.47 2519.71 9886.42 2519.52 9887.13 2519.38L9888.26 2534.43C9886.98 2534.86 9885.26 2535.28 9883.08 2535.71C9880.95 2536.18 9878.32 2536.42 9875.19 2536.42C9870.46 2536.42 9866.01 2535.4 9861.84 2533.37C9857.68 2531.33 9854.48 2528.23 9852.25 2524.06C9850.03 2519.9 9849.44 2514.64 9850.48 2508.3L9868.38 2399.77ZM9904.38 2575.91L9929.53 2425.91H9945.72L9942.88 2443.24H9944.87C9946.38 2441.34 9948.47 2438.93 9951.12 2435.99C9953.82 2433.01 9957.44 2430.36 9961.98 2428.04C9966.58 2425.67 9972.42 2424.49 9979.53 2424.49C9988.71 2424.49 9996.41 2426.79 10002.6 2431.38C10008.8 2435.97 10013.2 2442.48 10015.7 2450.91C10018.3 2459.34 10018.6 2469.28 10016.7 2480.74C10014.8 2492.29 10011.2 2502.31 10005.9 2510.78C10000.5 2519.21 9993.99 2525.74 9986.27 2530.38C9978.56 2534.98 9970.15 2537.27 9961.06 2537.27C9954.05 2537.27 9948.63 2536.11 9944.8 2533.79C9940.96 2531.43 9938.17 2528.75 9936.42 2525.77C9934.66 2522.74 9933.31 2520.23 9932.37 2518.24H9930.95L9921.29 2575.91H9904.38ZM9936.91 2480.45C9935.59 2488.69 9935.59 2495.96 9936.91 2502.26C9938.29 2508.51 9941.01 2513.41 9945.08 2516.96C9949.2 2520.46 9954.62 2522.22 9961.35 2522.22C9968.35 2522.22 9974.48 2520.37 9979.74 2516.68C9985.04 2512.94 9989.4 2507.92 9992.81 2501.62C9996.26 2495.27 9998.66 2488.22 9999.98 2480.45C10001.2 2472.78 10001.2 2465.87 9999.84 2459.72C9998.51 2453.51 9995.81 2448.61 9991.74 2445.01C9987.67 2441.37 9982.08 2439.55 9974.98 2439.55C9968.16 2439.55 9962.13 2441.27 9956.87 2444.73C9951.66 2448.14 9947.35 2452.92 9943.94 2459.08C9940.58 2465.18 9938.24 2472.31 9936.91 2480.45ZM10109.4 2490.4L10120.2 2425.91H10137L10118.8 2535H10102L10105.1 2516.53H10104C10100.6 2522.07 10095.8 2526.79 10089.7 2530.67C10083.6 2534.5 10076.5 2536.42 10068.2 2536.42C10061.4 2536.42 10055.6 2534.93 10050.7 2531.95C10046 2528.92 10042.6 2524.37 10040.5 2518.31C10038.5 2512.2 10038.3 2504.51 10039.8 2495.23L10051.5 2425.91H10068.2L10056.9 2494.09C10055.6 2502.05 10056.8 2508.39 10060.5 2513.12C10064.2 2517.86 10069.5 2520.23 10076.5 2520.23C10080.6 2520.23 10085 2519.16 10089.7 2517.03C10094.4 2514.9 10098.5 2511.63 10102.2 2507.23C10105.9 2502.83 10108.3 2497.22 10109.4 2490.4ZM10215.1 2425.91L10212.8 2440.11H10156.3L10158.6 2425.91H10215.1ZM10179.3 2399.77H10196.1L10178.7 2503.75C10178 2508.48 10178.1 2512.04 10179.1 2514.4C10180.1 2516.72 10181.7 2518.29 10183.8 2519.09C10185.9 2519.85 10188.2 2520.23 10190.7 2520.23C10192.5 2520.23 10194 2520.13 10195.2 2519.94C10196.4 2519.71 10197.4 2519.52 10198.1 2519.38L10199.2 2534.43C10197.9 2534.86 10196.2 2535.28 10194 2535.71C10191.9 2536.18 10189.3 2536.42 10186.1 2536.42C10181.4 2536.42 10176.9 2535.4 10172.8 2533.37C10168.6 2531.33 10165.4 2528.23 10163.2 2524.06C10161 2519.9 10160.4 2514.64 10161.4 2508.3L10179.3 2399.77ZM10319.3 2389.55L10295.2 2535H10278.4L10302.5 2389.55H10319.3ZM10357.7 2537.56C10350.8 2537.56 10344.7 2536.25 10339.5 2533.65C10334.3 2531 10330.4 2527.19 10327.9 2522.22C10325.4 2517.2 10324.7 2511.14 10325.9 2504.03C10326.9 2497.78 10329 2492.72 10332.2 2488.84C10335.3 2484.91 10339.1 2481.83 10343.5 2479.6C10348 2477.33 10352.9 2475.65 10358 2474.56C10363.2 2473.42 10368.4 2472.55 10373.6 2471.93C10380.3 2471.08 10385.8 2470.42 10390 2469.94C10394.2 2469.47 10397.4 2468.69 10399.5 2467.6C10401.6 2466.51 10402.9 2464.64 10403.4 2461.99V2461.42C10404.5 2454.46 10403.6 2449.04 10400.6 2445.16C10397.7 2441.23 10392.3 2439.26 10384.7 2439.26C10376.7 2439.26 10370.1 2441.01 10364.7 2444.52C10359.4 2448.02 10355.4 2451.76 10352.8 2455.74L10338.1 2450.06C10342 2443.43 10346.6 2438.27 10352 2434.57C10357.4 2430.83 10363 2428.23 10369 2426.76C10374.9 2425.25 10380.6 2424.49 10386.1 2424.49C10389.6 2424.49 10393.5 2424.91 10397.9 2425.77C10402.3 2426.57 10406.5 2428.25 10410.3 2430.81C10414.2 2433.37 10417.1 2437.23 10419 2442.39C10421 2447.55 10421.3 2454.46 10419.9 2463.12L10408 2535H10391.2L10393.7 2520.23H10392.9C10391.4 2522.59 10389.1 2525.13 10385.9 2527.83C10382.9 2530.53 10379 2532.82 10374.2 2534.72C10369.5 2536.61 10364 2537.56 10357.7 2537.56ZM10362.5 2522.5C10369.1 2522.5 10374.9 2521.2 10379.9 2518.59C10384.9 2515.99 10388.9 2512.63 10392 2508.51C10395.1 2504.39 10397 2500.06 10397.7 2495.51L10400.3 2480.17C10399.4 2481.02 10397.8 2481.8 10395.2 2482.51C10392.7 2483.18 10389.9 2483.77 10386.7 2484.29C10383.6 2484.76 10380.5 2485.19 10377.6 2485.57C10374.6 2485.9 10372.3 2486.18 10370.5 2486.42C10366 2486.99 10361.8 2487.91 10357.7 2489.19C10353.8 2490.42 10350.4 2492.29 10347.7 2494.8C10345 2497.26 10343.3 2500.62 10342.6 2504.89C10341.6 2510.71 10343 2515.11 10346.8 2518.1C10350.6 2521.03 10355.8 2522.5 10362.5 2522.5ZM10438.8 2575.91C10435.9 2575.91 10433.4 2575.67 10431.2 2575.2C10429.1 2574.77 10427.6 2574.35 10426.8 2573.92L10433.6 2559.15C10437.5 2560.19 10441 2560.5 10444 2560.07C10447.1 2559.69 10450 2558.2 10452.8 2555.6C10455.5 2553.04 10458.5 2549.02 10461.5 2543.52L10466.2 2535L10444.3 2425.91H10461.8L10477.4 2513.12H10478.5L10523.1 2425.91H10542L10475.1 2550.77C10472 2556.59 10468.6 2561.35 10464.8 2565.04C10461.1 2568.74 10457 2571.46 10452.7 2573.21C10448.3 2575.01 10443.7 2575.91 10438.8 2575.91ZM10587.5 2537.27C10577.1 2537.27 10568.4 2534.95 10561.6 2530.31C10554.8 2525.62 10550 2519.09 10547.3 2510.71C10544.6 2502.28 10544.2 2492.48 10546 2481.31C10547.9 2470.13 10551.6 2460.28 10557 2451.76C10562.5 2443.19 10569.4 2436.52 10577.6 2431.73C10585.8 2426.9 10594.8 2424.49 10604.6 2424.49C10610.2 2424.49 10615.7 2425.44 10621 2427.33C10626.2 2429.22 10630.8 2432.3 10634.6 2436.56C10638.4 2440.78 10641.1 2446.36 10642.6 2453.32C10644.1 2460.28 10644.1 2468.85 10642.3 2479.03L10641.2 2486.14H10557.1L10559.4 2471.65H10626.4C10627.5 2465.49 10627.2 2460 10625.6 2455.17C10624 2450.34 10621.2 2446.53 10617.1 2443.74C10613.2 2440.94 10608.1 2439.55 10602 2439.55C10595.7 2439.55 10589.8 2441.25 10584.4 2444.66C10578.9 2448.02 10574.4 2452.28 10570.8 2457.44C10567.1 2462.56 10564.8 2467.77 10563.9 2473.07L10561.9 2485.57C10560.5 2494.61 10560.7 2501.81 10562.6 2507.16C10564.5 2512.51 10567.8 2516.37 10572.5 2518.74C10577.1 2521.06 10583 2522.22 10590.1 2522.22C10594.6 2522.22 10598.7 2521.6 10602.5 2520.37C10606.3 2519.09 10609.7 2517.2 10612.7 2514.69C10615.6 2512.13 10618.2 2508.96 10620.2 2505.17L10635.5 2509.72C10632.9 2515.21 10629.3 2520.04 10624.5 2524.2C10619.8 2528.32 10614.3 2531.54 10608 2533.86C10601.8 2536.14 10595 2537.27 10587.5 2537.27ZM10658.9 2535L10677 2425.91H10693.2L10690.4 2442.39H10691.5C10694.4 2436.99 10698.7 2432.61 10704.5 2429.25C10710.4 2425.89 10716.5 2424.2 10723.1 2424.2C10724.3 2424.2 10725.9 2424.23 10727.7 2424.28C10729.5 2424.28 10730.9 2424.35 10731.9 2424.49L10729 2441.53C10728.5 2441.39 10727.2 2441.18 10725.2 2440.89C10723.2 2440.56 10721.1 2440.4 10718.8 2440.4C10713.5 2440.4 10708.6 2441.51 10704.1 2443.74C10699.6 2445.91 10695.8 2448.94 10692.8 2452.83C10689.8 2456.66 10687.8 2461.04 10687 2465.97L10675.6 2535H10658.9Z" fill="black"/>
<path d="M9589.68 2755.93C9585.77 2759.83 9585.77 2766.17 9589.68 2770.07L9653.32 2833.71C9657.22 2837.62 9663.56 2837.62 9667.46 2833.71C9671.37 2829.81 9671.37 2823.47 9667.46 2819.57L9610.89 2763L9667.46 2706.43C9671.37 2702.53 9671.37 2696.19 9667.46 2692.29C9663.56 2688.38 9657.22 2688.38 9653.32 2692.29L9589.68 2755.93ZM10630.9 2770.07C10634.8 2766.17 10634.8 2759.83 10630.9 2755.93L10567.3 2692.29C10563.4 2688.38 10557 2688.38 10553.1 2692.29C10549.2 2696.19 10549.2 2702.53 10553.1 2706.43L10609.7 2763L10553.1 2819.57C10549.2 2823.47 10549.2 2829.81 10553.1 2833.71C10557 2837.62 10563.4 2837.62 10567.3 2833.71L10630.9 2770.07ZM9596.75 2763V2773H10623.8V2763V2753H9596.75V2763Z" fill="black"/>
</svg>
